# xmcd
#
# Track frame offsets:
#	150
#	17462
#	28453
#	38731
#	50737
#	65791
#	77987
#	89460
#	104424
#	115128
#	127584
#	140428
#	153393
#	164716
#	180347
#	190163
#	205051
#	216346
#	230304
#	247393
#	262587
#	276895
#
# Disc length: 3900 seconds
#
# Revision: 0
# Processed by: cddbd v1.5.2PL0 Copyright (c) Steve Scherf et al.
# Submitted via: dBpowerAMP V4.0
#
DISCID=3c0f3a16
DTITLE=Chris LeDoux - Western Tunesmith/He Rides The Wild Horses
DYEAR=2007
DGENRE=Country
TTITLE0=Country Star
TTITLE1=Ten Seconds In The Saddle
TTITLE2=Cowboy And The Rose
TTITLE3=Old Paint
TTITLE4=Dream On Cowboy
TTITLE5=Dirt And Sweat Cowboy
TTITLE6=Navajo Wrangler
TTITLE7=Come Riding Joe Cy
TTITLE8=Get Along Little Doggies
TTITLE9=My Heroes Have Always Been Cowboys
TTITLE10=I Don't Want To Be A Cowboy Anymore
TTITLE11=He Rides The Wild Horses
TTITLE12=So You Want To Be A Cowboy
TTITLE13=Blue Eyes And Freckles
TTITLE14=Back When We Was Kids
TTITLE15=Just Riding Through
TTITLE16=I Got You
TTITLE17=Freedom's Just A State Of Mind
TTITLE18=The Cowboy And The Hippie
TTITLE19=Misfortune's Own Son
TTITLE20=Old Tom Horn
TTITLE21=When The Rodeo Comes To Town
EXTD=
EXTT0=
EXTT1=
EXTT2=
EXTT3=
EXTT4=
EXTT5=
EXTT6=
EXTT7=
EXTT8=
EXTT9=
EXTT10=
EXTT11=
EXTT12=
EXTT13=
EXTT14=
EXTT15=
EXTT16=
EXTT17=
EXTT18=
EXTT19=
EXTT20=
EXTT21=
PLAYORDER=
